<svg width="90" height="135" viewBox="0 0 90 135" fill="none" xmlns="http://www.w3.org/2000/svg">
<g clip-path="url(#clip0_106_2)">
<path d="M90 23.7759V135H0V11.2905H76.6829L90 23.7759Z" fill="white"/>
<path d="M50.1183 4.44556H39.882C36.973 4.44556 34.6147 6.84835 34.6147 9.81234V87.5194C34.6147 90.4834 36.973 92.8861 39.882 92.8861H50.1183C53.0273 92.8861 55.3855 90.4834 55.3855 87.5194V9.81234C55.3855 6.84835 53.0273 4.44556 50.1183 4.44556Z" fill="#202124" stroke="black" stroke-width="0.87" stroke-miterlimit="10"/>
<path d="M44.1951 17.6091V80.198" stroke="white" stroke-width="1.97" stroke-linecap="round" stroke-linejoin="round"/>
<path d="M34.5252 111.082H43.1714L38.0831 122.991H42.8435V125.654H34.0979L39.1664 113.827H34.5252V111.082Z" fill="black"/>
<path d="M45.0398 111.082H47.7032V125.654H45.0398V111.082Z" fill="black"/>
<path d="M50.7939 111.082H53.6661C54.809 111.019 55.9537 111.166 57.0451 111.518C57.7285 111.801 58.3038 112.302 58.6848 112.946C59.0977 113.663 59.3043 114.484 59.2811 115.315C59.314 116.226 59.0366 117.12 58.496 117.847C57.9521 118.534 57.2071 119.027 56.3693 119.254C55.4271 119.443 54.4664 119.517 53.5071 119.477V125.654H50.7939V111.082ZM53.517 116.773H54.3816C54.8595 116.794 55.338 116.747 55.8028 116.631C56.0564 116.535 56.275 116.362 56.4289 116.135C56.5844 115.888 56.6639 115.599 56.6575 115.305C56.6724 115.058 56.6199 114.812 56.5059 114.594C56.3918 114.376 56.2207 114.194 56.0115 114.07C55.4662 113.833 54.8727 113.736 54.2822 113.786H53.517V116.773Z" fill="black"/>
</g>
<defs>
<clipPath id="clip0_106_2">
<rect width="90" height="135" fill="white"/>
</clipPath>
</defs>
</svg>
